<svg width="12" height="12" viewBox="0 0 12 12" fill="none" xmlns="http://www.w3.org/2000/svg">
<path fill-rule="evenodd" clip-rule="evenodd" d="M10.05 4.31252C10.0501 4.40116 10.0326 4.48892 9.99865 4.57078C9.96467 4.65264 9.91485 4.72698 9.85205 4.78952L6.47705 8.16452C6.41437 8.22723 6.33995 8.27697 6.25804 8.3109C6.17613 8.34484 6.08834 8.3623 5.99967 8.3623C5.91101 8.3623 5.82322 8.34484 5.74131 8.3109C5.6594 8.27697 5.58498 8.22723 5.5223 8.16452L2.1473 4.78952C2.08244 4.72733 2.03064 4.65282 1.99496 4.57035C1.95928 4.48788 1.94042 4.39911 1.93949 4.30926C1.93856 4.21941 1.95559 4.13027 1.98956 4.04708C2.02354 3.96389 2.07378 3.88833 2.13734 3.82481C2.20091 3.7613 2.27652 3.71111 2.35973 3.6772C2.44295 3.64329 2.5321 3.62634 2.62195 3.62734C2.7118 3.62833 2.80055 3.64726 2.88299 3.68301C2.96544 3.71876 3.03991 3.77061 3.10205 3.83552L6.00005 6.73277L8.8973 3.83552C8.99166 3.74099 9.11194 3.67657 9.24293 3.65042C9.37392 3.62428 9.50972 3.63759 9.63314 3.68866C9.75656 3.73973 9.86205 3.82627 9.93627 3.93732C10.0105 4.04838 10.0501 4.17895 10.05 4.31252Z" fill="#C8C8C8"/>
</svg>
