<svg width="16" height="16" viewBox="0 0 16 16" fill="none" xmlns="http://www.w3.org/2000/svg">
<path fill-rule="evenodd" clip-rule="evenodd" d="M13.9776 7.20001H4.62025L8.25425 3.56601C8.32953 3.49195 8.3894 3.40371 8.43041 3.3064C8.47141 3.20908 8.49275 3.1046 8.49318 2.999C8.49361 2.89339 8.47313 2.78875 8.43291 2.6911C8.3927 2.59345 8.33355 2.50473 8.25887 2.43005C8.1842 2.35538 8.09548 2.29623 7.99783 2.25601C7.90018 2.2158 7.79553 2.19532 7.68993 2.19575C7.58432 2.19618 7.47985 2.21751 7.38253 2.25852C7.28521 2.29953 7.19698 2.3594 7.12291 2.43468L2.12291 7.43468C2.12091 7.43601 2.12025 7.43868 2.11825 7.44068C2.00857 7.55261 1.93418 7.69429 1.90431 7.84812C1.87445 8.00196 1.89042 8.16118 1.95025 8.30601C1.99025 8.40135 2.04691 8.48601 2.11825 8.55935L2.12291 8.56601L7.12291 13.566C7.27958 13.722 7.48425 13.7993 7.68825 13.7993C7.84642 13.7993 8.00105 13.7524 8.13258 13.6646C8.26412 13.5767 8.36665 13.4518 8.42722 13.3057C8.4878 13.1596 8.5037 12.9988 8.47291 12.8436C8.44212 12.6885 8.36603 12.5459 8.25425 12.434L4.62091 8.80001H13.9782C14.1904 8.80001 14.3939 8.71573 14.5439 8.5657C14.694 8.41567 14.7782 8.21219 14.7782 8.00001C14.7782 7.78784 14.694 7.58436 14.5439 7.43433C14.3939 7.2843 14.1904 7.20001 13.9782 7.20001" fill="#1C1E22"/>
</svg>
