<svg width="12" height="12" viewBox="0 0 12 12" fill="none" xmlns="http://www.w3.org/2000/svg">
<path d="M5.37543 1.22503C5.72043 0.930034 6.28543 0.930034 6.63543 1.22503L7.42543 1.90503C7.57543 2.03503 7.85543 2.14003 8.05543 2.14003H8.90543C9.43543 2.14003 9.87043 2.57503 9.87043 3.10503V3.95503C9.87043 4.15003 9.97543 4.43503 10.1054 4.58503L10.7854 5.37503C11.0804 5.72003 11.0804 6.28503 10.7854 6.63503L10.1054 7.42503C9.97543 7.57503 9.87043 7.85503 9.87043 8.05503V8.90503C9.87043 9.43503 9.43543 9.87003 8.90543 9.87003H8.05543C7.86043 9.87003 7.57543 9.97503 7.42543 10.105L6.63543 10.785C6.29043 11.08 5.72543 11.08 5.37543 10.785L4.58543 10.105C4.43543 9.97503 4.15543 9.87003 3.95543 9.87003H3.09043C2.56043 9.87003 2.12543 9.43503 2.12543 8.90503V8.05003C2.12543 7.85503 2.02043 7.57503 1.89543 7.42503L1.22043 6.63003C0.93043 6.28503 0.93043 5.72503 1.22043 5.38003L1.89543 4.58503C2.02043 4.43503 2.12543 4.15503 2.12543 3.96003V3.10003C2.12543 2.57003 2.56043 2.13503 3.09043 2.13503H3.95543C4.15043 2.13503 4.43543 2.03003 4.58543 1.90003L5.37543 1.22503Z" fill="#4D67EB"/>
<path d="M4.19043 6.00004L5.39543 7.21004L7.81043 4.79004" stroke="white" stroke-width="1.2" stroke-linecap="round" stroke-linejoin="round"/>
</svg>
