<svg width="111" height="24" viewBox="0 0 111 24" fill="none" xmlns="http://www.w3.org/2000/svg">
<path d="M25.3173 10.0871C24.4965 6.62143 20.4269 7.42557 17.7977 7.35826C16.6675 5.09618 16.1676 -0.156953 12.7368 0.00387479C12.7368 0.00387479 12.7342 0.00387479 12.7325 0.00387479C9.30614 -0.163072 8.79481 5.10842 7.67164 7.35739C7.39543 8.09685 5.7146 12.5992 5.48298 13.2215C4.90872 12.8963 3.75495 12.2452 3.18156 11.9209C2.24456 11.4069 2.62391 9.9656 3.69202 9.97959H5.29331L6.27226 7.35739C3.80914 7.27435 0.920354 7.12402 0.15205 10.0871C-0.720268 13.1979 2.34945 14.5107 4.55385 15.7091C4.55385 15.7091 4.08972 16.9529 4.08972 16.9538C2.78823 19.4789 3.45077 22.8021 6.37278 23.7496C11.4861 25.3911 14.5602 18.5271 9.98791 15.7685L7.79313 14.5282C13.9299 -1.34393 11.5595 -1.22244 17.6744 14.5282L15.4797 15.7685C10.9074 18.528 13.9833 25.3911 19.0957 23.7496C21.5903 22.9245 22.6391 20.2 21.7039 17.8235L21.3796 16.9538L19.0686 18.2596C20.3692 20.5095 17.8038 22.539 16.2086 20.6362C15.5898 19.8207 15.8546 18.5603 16.7497 18.0647C16.7768 18.0463 18.5774 17.0316 18.6045 17.0149L20.9155 15.71C23.1225 14.509 26.1887 13.1979 25.3173 10.0871ZM8.69779 18.0507C8.70478 18.0551 8.71178 18.0603 8.71964 18.0638C10.6059 19.1721 9.12171 22.0207 7.22499 21.269C5.30991 20.5916 6.2338 18.5891 6.86488 17.0149L8.69779 18.0507ZM22.2878 11.9209L19.9864 13.2215L18.7758 9.97959H21.7764C22.5194 9.97959 22.7327 10.5722 22.7799 10.7531C22.8271 10.9341 22.9328 11.5555 22.2869 11.9209H22.2878Z" fill="white"/>
<path d="M25.3173 10.0871C24.4965 6.62143 20.4269 7.42557 17.7977 7.35826C16.6675 5.09618 16.1676 -0.156953 12.7368 0.00387479C12.7368 0.00387479 12.7342 0.00387479 12.7325 0.00387479C9.30614 -0.163072 8.79481 5.10842 7.67164 7.35739C7.39543 8.09685 5.7146 12.5992 5.48298 13.2215C4.90872 12.8963 3.75495 12.2452 3.18156 11.9209C2.24456 11.4069 2.62391 9.9656 3.69202 9.97959H5.29331L6.27226 7.35739C3.80914 7.27435 0.920354 7.12402 0.15205 10.0871C-0.720268 13.1979 2.34945 14.5107 4.55385 15.7091C4.55385 15.7091 4.08972 16.9529 4.08972 16.9538C2.78823 19.4789 3.45077 22.8021 6.37278 23.7496C11.4861 25.3911 14.5602 18.5271 9.98791 15.7685L7.79313 14.5282C13.9299 -1.34393 11.5595 -1.22244 17.6744 14.5282L15.4797 15.7685C10.9074 18.528 13.9833 25.3911 19.0957 23.7496C21.5903 22.9245 22.6391 20.2 21.7039 17.8235L21.3796 16.9538L19.0686 18.2596C20.3692 20.5095 17.8038 22.539 16.2086 20.6362C15.5898 19.8207 15.8546 18.5603 16.7497 18.0647C16.7768 18.0463 18.5774 17.0316 18.6045 17.0149L20.9155 15.71C23.1225 14.509 26.1887 13.1979 25.3173 10.0871ZM8.69779 18.0507C8.70478 18.0551 8.71178 18.0603 8.71964 18.0638C10.6059 19.1721 9.12171 22.0207 7.22499 21.269C5.30991 20.5916 6.2338 18.5891 6.86488 17.0149L8.69779 18.0507ZM22.2878 11.9209L19.9864 13.2215L18.7758 9.97959H21.7764C22.5194 9.97959 22.7327 10.5722 22.7799 10.7531C22.8271 10.9341 22.9328 11.5555 22.2869 11.9209H22.2878Z" fill="url(#paint0_linear_6533_458)"/>
<path d="M107.083 17.9468C106.706 17.9468 106.346 17.8642 106.004 17.699C105.673 17.522 105.402 17.2507 105.19 16.8849C104.989 16.5191 104.889 16.053 104.889 15.4867C104.889 15.1799 104.918 14.7787 104.977 14.2831C105.036 13.7876 105.113 13.2448 105.207 12.6548C105.314 12.0649 105.42 11.4749 105.526 10.8849C105.29 10.8967 105.06 10.9203 104.836 10.9557C104.623 10.9911 104.411 11.0324 104.198 11.0796L104.163 10.9557C104.399 10.6725 104.647 10.4306 104.906 10.2301C105.166 10.0295 105.437 9.86428 105.721 9.73449C105.874 8.95573 106.004 8.28317 106.11 7.7168C106.216 7.13864 106.269 6.79645 106.269 6.69026C106.269 6.48967 106.423 6.32448 106.729 6.19469C107.048 6.0649 107.402 6 107.791 6C108.134 6 108.452 6.0649 108.747 6.19469C109.054 6.32448 109.26 6.54277 109.367 6.84955C109.296 6.92035 109.195 7.18583 109.066 7.64601C108.936 8.09438 108.8 8.64305 108.659 9.29201C108.883 9.30381 109.113 9.31561 109.349 9.32741C109.585 9.33921 109.827 9.35691 110.075 9.38051C110.098 9.4513 110.116 9.528 110.128 9.61059C110.139 9.69319 110.145 9.78168 110.145 9.87608C110.145 10.0531 110.116 10.2478 110.057 10.4601C110.01 10.6607 109.951 10.8436 109.88 11.0088C109.597 10.9852 109.331 10.9616 109.083 10.938C108.836 10.9026 108.594 10.879 108.358 10.8672C108.263 11.3746 108.175 11.882 108.092 12.3893C108.021 12.8967 107.962 13.3569 107.915 13.7699C107.88 14.1828 107.862 14.5073 107.862 14.7433C107.862 15.2389 107.951 15.5693 108.128 15.7344C108.316 15.8996 108.541 15.9822 108.8 15.9822C109.036 15.9822 109.249 15.935 109.437 15.8406C109.626 15.7462 109.762 15.6342 109.844 15.5044L110.021 15.5575C109.951 16.0412 109.762 16.466 109.455 16.8318C109.148 17.1858 108.783 17.463 108.358 17.6636C107.933 17.8524 107.508 17.9468 107.083 17.9468Z" fill="#1C1E22"/>
<path d="M99.0594 18C98.1981 18 97.4842 17.8289 96.9179 17.4867C96.3515 17.1327 95.9267 16.6726 95.6435 16.1062C95.3603 15.528 95.2188 14.9086 95.2188 14.2478C95.2188 13.6224 95.3367 12.9971 95.5727 12.3717C95.8205 11.7345 96.1745 11.1564 96.6347 10.6372C97.1066 10.118 97.673 9.69916 98.3338 9.38058C99.0063 9.062 99.7615 8.90271 100.599 8.90271C101.638 8.90271 102.393 9.1387 102.865 9.61067C103.348 10.0708 103.59 10.6313 103.59 11.2921C103.59 11.8584 103.437 12.3835 103.13 12.8673C102.835 13.3393 102.44 13.7227 101.944 14.0177C101.449 14.3009 100.906 14.4425 100.316 14.4425C100.009 14.4425 99.6966 14.3953 99.378 14.3009C99.0594 14.2065 98.7468 14.059 98.44 13.8584C98.499 14.59 98.7114 15.121 99.0771 15.4513C99.4429 15.7817 99.8795 15.9469 100.387 15.9469C100.741 15.9469 101.095 15.882 101.449 15.7522C101.803 15.6106 102.127 15.4336 102.422 15.2213C102.729 14.9971 102.965 14.7611 103.13 14.5133L103.254 14.6018C103.254 15.2154 103.124 15.7404 102.865 16.177C102.617 16.6018 102.287 16.9499 101.874 17.2212C101.461 17.4926 101.006 17.6932 100.511 17.823C100.027 17.941 99.5432 18 99.0594 18ZM99.4665 13.2213C99.8441 13.2213 100.151 13.1151 100.387 12.9027C100.623 12.6785 100.8 12.4189 100.918 12.1239C101.036 11.8289 101.095 11.5694 101.095 11.3452C101.095 11.0738 101.018 10.8496 100.865 10.6726C100.711 10.4838 100.499 10.3894 100.228 10.3894C100.015 10.3894 99.7792 10.4661 99.5196 10.6195C99.2718 10.7729 99.0476 11.0384 98.847 11.416C98.6465 11.7817 98.5167 12.295 98.4577 12.9558C98.8352 13.1328 99.1715 13.2213 99.4665 13.2213Z" fill="#1C1E22"/>
<path d="M89.8299 18C88.9686 18 88.2547 17.8289 87.6884 17.4867C87.122 17.1327 86.6972 16.6726 86.414 16.1062C86.1309 15.528 85.9893 14.9086 85.9893 14.2478C85.9893 13.6224 86.1073 12.9971 86.3432 12.3717C86.591 11.7345 86.945 11.1564 87.4052 10.6372C87.8772 10.118 88.4435 9.69916 89.1043 9.38058C89.7768 9.062 90.532 8.90271 91.3698 8.90271C92.4081 8.90271 93.1633 9.1387 93.6352 9.61067C94.119 10.0708 94.3609 10.6313 94.3609 11.2921C94.3609 11.8584 94.2075 12.3835 93.9007 12.8673C93.6057 13.3393 93.2104 13.7227 92.7149 14.0177C92.2193 14.3009 91.6765 14.4425 91.0866 14.4425C90.7798 14.4425 90.4671 14.3953 90.1485 14.3009C89.8299 14.2065 89.5173 14.059 89.2105 13.8584C89.2695 14.59 89.4819 15.121 89.8476 15.4513C90.2134 15.7817 90.65 15.9469 91.1574 15.9469C91.5113 15.9469 91.8653 15.882 92.2193 15.7522C92.5733 15.6106 92.8978 15.4336 93.1928 15.2213C93.4995 14.9971 93.7355 14.7611 93.9007 14.5133L94.0246 14.6018C94.0246 15.2154 93.8948 15.7404 93.6352 16.177C93.3874 16.6018 93.0571 16.9499 92.6441 17.2212C92.2311 17.4926 91.7768 17.6932 91.2813 17.823C90.7975 17.941 90.3137 18 89.8299 18ZM90.237 13.2213C90.6146 13.2213 90.9214 13.1151 91.1574 12.9027C91.3934 12.6785 91.5703 12.4189 91.6883 12.1239C91.8063 11.8289 91.8653 11.5694 91.8653 11.3452C91.8653 11.0738 91.7886 10.8496 91.6352 10.6726C91.4819 10.4838 91.2695 10.3894 90.9981 10.3894C90.7857 10.3894 90.5497 10.4661 90.2901 10.6195C90.0423 10.7729 89.8181 11.0384 89.6176 11.416C89.417 11.7817 89.2872 12.295 89.2282 12.9558C89.6058 13.1328 89.942 13.2213 90.237 13.2213Z" fill="#1C1E22"/>
<path d="M73.1923 17.9468C72.7675 17.9468 72.384 17.7757 72.0418 17.4335C71.7114 17.0795 71.5462 16.5958 71.5462 15.9822C71.5462 15.6754 71.5875 15.3273 71.6701 14.9379C71.7527 14.5368 71.8412 14.1297 71.9356 13.7167C72.0418 13.3037 72.1362 12.9144 72.2188 12.5486C72.3014 12.1828 72.3427 11.876 72.3427 11.6282C72.3427 11.4276 72.2955 11.2684 72.2011 11.1504C72.1067 11.0206 71.9828 10.9557 71.8294 10.9557C71.6288 10.9557 71.4106 11.0737 71.1746 11.3097L71.0684 11.2389C71.0566 11.0501 71.0979 10.8259 71.1923 10.5663C71.2867 10.3067 71.4401 10.0589 71.6524 9.82294C71.8648 9.57515 72.1421 9.36866 72.4843 9.20347C72.8265 9.03828 73.2336 8.95569 73.7055 8.95569C74.2365 8.95569 74.6318 9.14448 74.8914 9.52206C75.1627 9.88784 75.2984 10.3303 75.2984 10.8495C75.2984 10.9085 75.2984 10.9734 75.2984 11.0442C75.2984 11.1032 75.2925 11.1622 75.2807 11.2212C75.5049 10.8554 75.7645 10.5014 76.0595 10.1592C76.3663 9.81704 76.7085 9.53386 77.086 9.30967C77.4754 9.07368 77.8943 8.95569 78.3427 8.95569C78.9208 8.95569 79.322 9.14448 79.5462 9.52206C79.7704 9.88784 79.8825 10.3067 79.8825 10.7787C79.8825 10.8731 79.8766 10.9675 79.8648 11.0619C79.8648 11.1445 79.8589 11.2271 79.8471 11.3097C80.0949 10.9439 80.3662 10.584 80.6612 10.23C80.968 9.86424 81.3161 9.56335 81.7055 9.32737C82.0948 9.07958 82.5432 8.95569 83.0506 8.95569C83.676 8.95569 84.1007 9.13858 84.3249 9.50436C84.5609 9.87014 84.6789 10.3008 84.6789 10.7964C84.6789 11.233 84.6258 11.7344 84.5196 12.3008C84.4134 12.8554 84.3072 13.404 84.201 13.9468C84.0948 14.4896 84.0417 14.9497 84.0417 15.3273C84.0417 15.5515 84.0712 15.7344 84.1302 15.876C84.201 16.0176 84.3131 16.0884 84.4665 16.0884C84.5963 16.0884 84.7143 16.053 84.8205 15.9822C84.9385 15.8996 85.0211 15.8052 85.0683 15.699L85.2099 15.7521C85.2099 16.1887 85.086 16.5722 84.8382 16.9025C84.5904 17.2329 84.2777 17.4925 83.9001 17.6813C83.5226 17.8583 83.145 17.9468 82.7674 17.9468C82.3072 17.9468 81.9002 17.7934 81.5462 17.4866C81.204 17.1798 81.0329 16.6725 81.0329 15.9645C81.0329 15.5279 81.086 15.0559 81.1922 14.5486C81.3102 14.0412 81.4223 13.5515 81.5285 13.0796C81.6465 12.5958 81.7055 12.2005 81.7055 11.8937C81.7055 11.4571 81.5521 11.2389 81.2453 11.2389C81.0211 11.2389 80.7969 11.3333 80.5727 11.522C80.3603 11.699 80.1657 11.9409 79.9887 12.2477C79.8235 12.5427 79.6878 12.8554 79.5816 13.1857C79.4754 13.5161 79.4223 13.8347 79.4223 14.1415C79.4223 14.4247 79.4518 14.7374 79.5108 15.0795C79.5816 15.4099 79.617 15.7285 79.617 16.0353C79.617 16.6489 79.4459 17.1208 79.1037 17.4512C78.7615 17.7816 78.3604 17.9468 77.9002 17.9468C77.4754 17.9468 77.0919 17.8052 76.7497 17.522C76.4194 17.2388 76.2542 16.814 76.2542 16.2477C76.2542 15.9881 76.2896 15.6754 76.3604 15.3096C76.4312 14.932 76.5079 14.5427 76.5905 14.1415C76.6849 13.7285 76.7674 13.3332 76.8382 12.9557C76.909 12.5781 76.9444 12.2477 76.9444 11.9645C76.9444 11.7403 76.909 11.5633 76.8382 11.4335C76.7792 11.3038 76.6554 11.2389 76.4666 11.2389C76.1952 11.2389 75.9356 11.3746 75.6878 11.6459C75.44 11.9173 75.2276 12.2477 75.0506 12.6371C74.8737 13.0147 74.7557 13.3804 74.6967 13.7344C74.6849 13.817 74.6731 13.8819 74.6613 13.9291C74.6613 13.9763 74.6613 13.9999 74.6613 13.9999C74.6613 14.3657 74.7026 14.702 74.7852 15.0087C74.8678 15.3037 74.9091 15.6105 74.9091 15.9291C74.9091 16.5073 74.7321 16.991 74.3781 17.3804C74.0359 17.758 73.6406 17.9468 73.1923 17.9468Z" fill="#1C1E22"/>
<path d="M67.4858 17.9468C67.1082 17.9468 66.7483 17.8642 66.4061 17.699C66.0757 17.522 65.8044 17.2507 65.592 16.8849C65.3914 16.5191 65.2911 16.053 65.2911 15.4867C65.2911 15.1799 65.3206 14.7787 65.3796 14.2831C65.4386 13.7876 65.5153 13.2448 65.6097 12.6548C65.7159 12.0649 65.8221 11.4749 65.9283 10.8849C65.6923 10.8967 65.4622 10.9203 65.238 10.9557C65.0256 10.9911 64.8132 11.0324 64.6008 11.0796L64.5654 10.9557C64.8014 10.6725 65.0492 10.4306 65.3088 10.2301C65.5684 10.0295 65.8398 9.86428 66.1229 9.73449C66.2763 8.95573 66.4061 8.28317 66.5123 7.7168C66.6185 7.13864 66.6716 6.79645 66.6716 6.69026C66.6716 6.48967 66.825 6.32448 67.1318 6.19469C67.4504 6.0649 67.8043 6 68.1937 6C68.5359 6 68.8545 6.0649 69.1495 6.19469C69.4563 6.32448 69.6627 6.54277 69.7689 6.84955C69.6981 6.92035 69.5978 7.18583 69.4681 7.64601C69.3383 8.09438 69.2026 8.64305 69.061 9.29201C69.2852 9.30381 69.5152 9.31561 69.7512 9.32741C69.9872 9.33921 70.2291 9.35691 70.4769 9.38051C70.5005 9.4513 70.5182 9.528 70.53 9.61059C70.5418 9.69319 70.5477 9.78168 70.5477 9.87608C70.5477 10.0531 70.5182 10.2478 70.4592 10.4601C70.412 10.6607 70.353 10.8436 70.2822 11.0088C69.999 10.9852 69.7335 10.9616 69.4858 10.938C69.238 10.9026 68.9961 10.879 68.7601 10.8672C68.6657 11.3746 68.5772 11.882 68.4946 12.3893C68.4238 12.8967 68.3648 13.3569 68.3176 13.7699C68.2822 14.1828 68.2645 14.5073 68.2645 14.7433C68.2645 15.2389 68.353 15.5693 68.53 15.7344C68.7188 15.8996 68.943 15.9822 69.2026 15.9822C69.4386 15.9822 69.6509 15.935 69.8397 15.8406C70.0285 15.7462 70.1642 15.6342 70.2468 15.5044L70.4238 15.5575C70.353 16.0412 70.1642 16.466 69.8574 16.8318C69.5506 17.1858 69.1849 17.463 68.7601 17.6636C68.3353 17.8524 67.9105 17.9468 67.4858 17.9468Z" fill="#1C1E22"/>
<path d="M59.4618 18C58.6004 18 57.8866 17.8289 57.3202 17.4867C56.7538 17.1327 56.3291 16.6726 56.0459 16.1062C55.7627 15.528 55.6211 14.9086 55.6211 14.2478C55.6211 13.6224 55.7391 12.9971 55.9751 12.3717C56.2229 11.7345 56.5768 11.1564 57.037 10.6372C57.509 10.118 58.0754 9.69916 58.7361 9.38058C59.4087 9.062 60.1638 8.90271 61.0016 8.90271C62.0399 8.90271 62.7951 9.1387 63.2671 9.61067C63.7508 10.0708 63.9927 10.6313 63.9927 11.2921C63.9927 11.8584 63.8393 12.3835 63.5325 12.8673C63.2376 13.3393 62.8423 13.7227 62.3467 14.0177C61.8511 14.3009 61.3084 14.4425 60.7184 14.4425C60.4116 14.4425 60.0989 14.3953 59.7804 14.3009C59.4618 14.2065 59.1491 14.059 58.8423 13.8584C58.9013 14.59 59.1137 15.121 59.4795 15.4513C59.8453 15.7817 60.2818 15.9469 60.7892 15.9469C61.1432 15.9469 61.4972 15.882 61.8511 15.7522C62.2051 15.6106 62.5296 15.4336 62.8246 15.2213C63.1314 14.9971 63.3674 14.7611 63.5325 14.5133L63.6564 14.6018C63.6564 15.2154 63.5266 15.7404 63.2671 16.177C63.0193 16.6018 62.6889 16.9499 62.2759 17.2212C61.8629 17.4926 61.4087 17.6932 60.9131 17.823C60.4293 17.941 59.9455 18 59.4618 18ZM59.8689 13.2213C60.2464 13.2213 60.5532 13.1151 60.7892 12.9027C61.0252 12.6785 61.2022 12.4189 61.3202 12.1239C61.4382 11.8289 61.4972 11.5694 61.4972 11.3452C61.4972 11.0738 61.4205 10.8496 61.2671 10.6726C61.1137 10.4838 60.9013 10.3894 60.6299 10.3894C60.4175 10.3894 60.1815 10.4661 59.9219 10.6195C59.6742 10.7729 59.45 11.0384 59.2494 11.416C59.0488 11.7817 58.919 12.295 58.86 12.9558C59.2376 13.1328 59.5739 13.2213 59.8689 13.2213Z" fill="#1C1E22"/>
<path d="M50.2313 18C49.37 18 48.6561 17.8289 48.0897 17.4867C47.5234 17.1327 47.0986 16.6726 46.8154 16.1062C46.5322 15.528 46.3906 14.9086 46.3906 14.2478C46.3906 13.6224 46.5086 12.9971 46.7446 12.3717C46.9924 11.7345 47.3464 11.1564 47.8065 10.6372C48.2785 10.118 48.8449 9.69916 49.5056 9.38058C50.1782 9.062 50.9334 8.90271 51.7711 8.90271C52.8095 8.90271 53.5646 9.1387 54.0366 9.61067C54.5204 10.0708 54.7622 10.6313 54.7622 11.2921C54.7622 11.8584 54.6089 12.3835 54.3021 12.8673C54.0071 13.3393 53.6118 13.7227 53.1162 14.0177C52.6207 14.3009 52.0779 14.4425 51.4879 14.4425C51.1812 14.4425 50.8685 14.3953 50.5499 14.3009C50.2313 14.2065 49.9186 14.059 49.6118 13.8584C49.6708 14.59 49.8832 15.121 50.249 15.4513C50.6148 15.7817 51.0514 15.9469 51.5587 15.9469C51.9127 15.9469 52.2667 15.882 52.6207 15.7522C52.9746 15.6106 53.2991 15.4336 53.5941 15.2213C53.9009 14.9971 54.1369 14.7611 54.3021 14.5133L54.426 14.6018C54.426 15.2154 54.2962 15.7404 54.0366 16.177C53.7888 16.6018 53.4584 16.9499 53.0454 17.2212C52.6325 17.4926 52.1782 17.6932 51.6826 17.823C51.1989 17.941 50.7151 18 50.2313 18ZM50.6384 13.2213C51.016 13.2213 51.3227 13.1151 51.5587 12.9027C51.7947 12.6785 51.9717 12.4189 52.0897 12.1239C52.2077 11.8289 52.2667 11.5694 52.2667 11.3452C52.2667 11.0738 52.19 10.8496 52.0366 10.6726C51.8832 10.4838 51.6708 10.3894 51.3994 10.3894C51.1871 10.3894 50.9511 10.4661 50.6915 10.6195C50.4437 10.7729 50.2195 11.0384 50.0189 11.416C49.8183 11.7817 49.6885 12.295 49.6295 12.9558C50.0071 13.1328 50.3434 13.2213 50.6384 13.2213Z" fill="#1C1E22"/>
<path d="M33.5946 17.9468C33.1698 17.9468 32.7863 17.7757 32.4442 17.4335C32.1138 17.0795 31.9486 16.5958 31.9486 15.9822C31.9486 15.6754 31.9899 15.3273 32.0725 14.9379C32.1551 14.5368 32.2436 14.1297 32.338 13.7167C32.4442 13.3037 32.5386 12.9144 32.6212 12.5486C32.7037 12.1828 32.745 11.876 32.745 11.6282C32.745 11.4276 32.6978 11.2684 32.6035 11.1504C32.5091 11.0206 32.3852 10.9557 32.2318 10.9557C32.0312 10.9557 31.8129 11.0737 31.5769 11.3097L31.4707 11.2389C31.4589 11.0501 31.5002 10.8259 31.5946 10.5663C31.689 10.3067 31.8424 10.0589 32.0548 9.82294C32.2672 9.57515 32.5445 9.36866 32.8866 9.20347C33.2288 9.03828 33.6359 8.95569 34.1079 8.95569C34.6388 8.95569 35.0341 9.14448 35.2937 9.52206C35.5651 9.88784 35.7008 10.3303 35.7008 10.8495C35.7008 10.9085 35.7008 10.9734 35.7008 11.0442C35.7008 11.1032 35.6949 11.1622 35.6831 11.2212C35.9073 10.8554 36.1669 10.5014 36.4618 10.1592C36.7686 9.81704 37.1108 9.53386 37.4884 9.30967C37.8778 9.07368 38.2966 8.95569 38.745 8.95569C39.3232 8.95569 39.7243 9.14448 39.9485 9.52206C40.1727 9.88784 40.2848 10.3067 40.2848 10.7787C40.2848 10.8731 40.2789 10.9675 40.2671 11.0619C40.2671 11.1445 40.2612 11.2271 40.2494 11.3097C40.4972 10.9439 40.7686 10.584 41.0636 10.23C41.3704 9.86424 41.7184 9.56335 42.1078 9.32737C42.4972 9.07958 42.9456 8.95569 43.4529 8.95569C44.0783 8.95569 44.5031 9.13858 44.7273 9.50436C44.9633 9.87014 45.0812 10.3008 45.0812 10.7964C45.0812 11.233 45.0281 11.7344 44.922 12.3008C44.8158 12.8554 44.7096 13.404 44.6034 13.9468C44.4972 14.4896 44.4441 14.9497 44.4441 15.3273C44.4441 15.5515 44.4736 15.7344 44.5326 15.876C44.6034 16.0176 44.7155 16.0884 44.8689 16.0884C44.9986 16.0884 45.1166 16.053 45.2228 15.9822C45.3408 15.8996 45.4234 15.8052 45.4706 15.699L45.6122 15.7521C45.6122 16.1887 45.4883 16.5722 45.2405 16.9025C44.9928 17.2329 44.6801 17.4925 44.3025 17.6813C43.9249 17.8583 43.5473 17.9468 43.1698 17.9468C42.7096 17.9468 42.3025 17.7934 41.9485 17.4866C41.6063 17.1798 41.4353 16.6725 41.4353 15.9645C41.4353 15.5279 41.4883 15.0559 41.5945 14.5486C41.7125 14.0412 41.8246 13.5515 41.9308 13.0796C42.0488 12.5958 42.1078 12.2005 42.1078 11.8937C42.1078 11.4571 41.9544 11.2389 41.6476 11.2389C41.4235 11.2389 41.1993 11.3333 40.9751 11.522C40.7627 11.699 40.568 11.9409 40.391 12.2477C40.2258 12.5427 40.0901 12.8554 39.9839 13.1857C39.8777 13.5161 39.8246 13.8347 39.8246 14.1415C39.8246 14.4247 39.8541 14.7374 39.9131 15.0795C39.9839 15.4099 40.0193 15.7285 40.0193 16.0353C40.0193 16.6489 39.8482 17.1208 39.5061 17.4512C39.1639 17.7816 38.7627 17.9468 38.3025 17.9468C37.8778 17.9468 37.4943 17.8052 37.1521 17.522C36.8217 17.2388 36.6565 16.814 36.6565 16.2477C36.6565 15.9881 36.6919 15.6754 36.7627 15.3096C36.8335 14.932 36.9102 14.5427 36.9928 14.1415C37.0872 13.7285 37.1698 13.3332 37.2406 12.9557C37.3114 12.5781 37.3468 12.2477 37.3468 11.9645C37.3468 11.7403 37.3114 11.5633 37.2406 11.4335C37.1816 11.3038 37.0577 11.2389 36.8689 11.2389C36.5975 11.2389 36.3379 11.3746 36.0902 11.6459C35.8424 11.9173 35.63 12.2477 35.453 12.6371C35.276 13.0147 35.158 13.3804 35.099 13.7344C35.0872 13.817 35.0754 13.8819 35.0636 13.9291C35.0636 13.9763 35.0636 13.9999 35.0636 13.9999C35.0636 14.3657 35.1049 14.702 35.1875 15.0087C35.2701 15.3037 35.3114 15.6105 35.3114 15.9291C35.3114 16.5073 35.1344 16.991 34.7804 17.3804C34.4382 17.758 34.043 17.9468 33.5946 17.9468Z" fill="#1C1E22"/>
<defs>
<linearGradient id="paint0_linear_6533_458" x1="12.7346" y1="0" x2="12.7346" y2="24" gradientUnits="userSpaceOnUse">
<stop stop-color="#FA1155"/>
<stop offset="1" stop-color="#EB058F"/>
</linearGradient>
</defs>
</svg>
