<svg width="105" height="16" viewBox="0 0 105 16" fill="none" xmlns="http://www.w3.org/2000/svg">
<path d="M100.821 15.9292C100.317 15.9292 99.8373 15.8191 99.381 15.5988C98.9405 15.3628 98.5787 15.001 98.2955 14.5133C98.028 14.0256 97.8943 13.4041 97.8943 12.649C97.8943 12.2399 97.9336 11.705 98.0123 11.0442C98.091 10.3835 98.1932 9.65978 98.3191 8.87315C98.4607 8.08652 98.6023 7.2999 98.7439 6.51327C98.4292 6.529 98.1224 6.56047 97.8235 6.60767C97.5403 6.65486 97.2571 6.70993 96.974 6.77286L96.9268 6.60767C97.2414 6.23008 97.5718 5.90757 97.9179 5.64012C98.264 5.37266 98.6259 5.15241 99.0035 4.97935C99.208 3.941 99.381 3.04425 99.5226 2.28908C99.6642 1.51819 99.735 1.06195 99.735 0.920353C99.735 0.6529 99.9395 0.432644 100.349 0.259586C100.773 0.0865287 101.245 0 101.765 0C102.221 0 102.646 0.0865287 103.039 0.259586C103.448 0.432644 103.723 0.723696 103.865 1.13274C103.77 1.22714 103.637 1.58112 103.464 2.19469C103.291 2.79253 103.11 3.52409 102.921 4.38938C103.22 4.40511 103.527 4.42084 103.841 4.43658C104.156 4.45231 104.478 4.47591 104.809 4.50737C104.84 4.60177 104.864 4.70403 104.88 4.81416C104.895 4.92428 104.903 5.04228 104.903 5.16814C104.903 5.40413 104.864 5.66371 104.785 5.9469C104.722 6.21435 104.644 6.45821 104.549 6.67846C104.172 6.647 103.818 6.61553 103.487 6.58407C103.157 6.53687 102.834 6.5054 102.52 6.48967C102.394 7.16617 102.276 7.84267 102.166 8.51917C102.071 9.19567 101.993 9.80924 101.93 10.3599C101.883 10.9105 101.859 11.3432 101.859 11.6578C101.859 12.3186 101.977 12.7591 102.213 12.9793C102.465 13.1996 102.764 13.3097 103.11 13.3097C103.424 13.3097 103.707 13.2468 103.959 13.1209C104.211 12.9951 104.392 12.8456 104.502 12.6726L104.738 12.7434C104.644 13.3884 104.392 13.9548 103.983 14.4425C103.574 14.9144 103.086 15.2842 102.52 15.5516C101.953 15.8033 101.387 15.9292 100.821 15.9292Z" fill="#FA1155"/>
<path d="M90.1219 16.0001C88.9734 16.0001 88.0216 15.772 87.2665 15.3157C86.5113 14.8437 85.9449 14.2302 85.5674 13.475C85.1898 12.7041 85.001 11.8782 85.001 10.9971C85.001 10.1633 85.1583 9.32949 85.473 8.49567C85.8033 7.64611 86.2753 6.87522 86.8889 6.18298C87.5182 5.49075 88.2733 4.93225 89.1544 4.50747C90.0511 4.08269 91.058 3.8703 92.175 3.8703C93.5595 3.8703 94.5664 4.18495 95.1957 4.81425C95.8407 5.42782 96.1632 6.17512 96.1632 7.05614C96.1632 7.8113 95.9587 8.5114 95.5496 9.15643C95.1563 9.78574 94.6293 10.297 93.9685 10.6904C93.3078 11.0679 92.5841 11.2567 91.7974 11.2567C91.3884 11.2567 90.9715 11.1938 90.5467 11.0679C90.1219 10.9421 89.705 10.7454 89.296 10.478C89.3746 11.4534 89.6578 12.1613 90.1455 12.6019C90.6332 13.0424 91.2153 13.2626 91.8918 13.2626C92.3638 13.2626 92.8358 13.1761 93.3078 13.003C93.7797 12.8142 94.2124 12.5783 94.6057 12.2951C95.0147 11.9962 95.3294 11.6815 95.5496 11.3511L95.7148 11.4691C95.7148 12.2872 95.5418 12.9873 95.1957 13.5694C94.8653 14.1358 94.4248 14.5999 93.8741 14.9617C93.3235 15.3236 92.7178 15.591 92.057 15.7641C91.412 15.9214 90.767 16.0001 90.1219 16.0001ZM90.6647 9.62841C91.1681 9.62841 91.5772 9.48682 91.8918 9.20363C92.2065 8.90471 92.4425 8.5586 92.5998 8.16528C92.7571 7.77197 92.8358 7.42585 92.8358 7.12694C92.8358 6.76509 92.7335 6.46617 92.529 6.23018C92.3245 5.97846 92.0413 5.8526 91.6794 5.8526C91.3963 5.8526 91.0816 5.95486 90.7355 6.15938C90.4051 6.36391 90.1062 6.71789 89.8387 7.22133C89.5713 7.70904 89.3982 8.39341 89.3196 9.27443C89.823 9.51042 90.2714 9.62841 90.6647 9.62841Z" fill="#FA1155"/>
<path d="M77.8153 16.0001C76.6668 16.0001 75.715 15.772 74.9598 15.3157C74.2047 14.8437 73.6383 14.2302 73.2607 13.475C72.8831 12.7041 72.6943 11.8782 72.6943 10.9971C72.6943 10.1633 72.8517 9.32949 73.1663 8.49567C73.4967 7.64611 73.9687 6.87522 74.5822 6.18298C75.2115 5.49075 75.9667 4.93225 76.8477 4.50747C77.7445 4.08269 78.7514 3.8703 79.8684 3.8703C81.2528 3.8703 82.2597 4.18495 82.889 4.81425C83.5341 5.42782 83.8566 6.17512 83.8566 7.05614C83.8566 7.8113 83.6521 8.5114 83.243 9.15643C82.8497 9.78574 82.3226 10.297 81.6619 10.6904C81.0011 11.0679 80.2774 11.2567 79.4908 11.2567C79.0818 11.2567 78.6648 11.1938 78.2401 11.0679C77.8153 10.9421 77.3984 10.7454 76.9893 10.478C77.068 11.4534 77.3512 12.1613 77.8389 12.6019C78.3266 13.0424 78.9087 13.2626 79.5852 13.2626C80.0572 13.2626 80.5291 13.1761 81.0011 13.003C81.4731 12.8142 81.9057 12.5783 82.2991 12.2951C82.7081 11.9962 83.0228 11.6815 83.243 11.3511L83.4082 11.4691C83.4082 12.2872 83.2351 12.9873 82.889 13.5694C82.5586 14.1358 82.1181 14.5999 81.5675 14.9617C81.0169 15.3236 80.4112 15.591 79.7504 15.7641C79.1054 15.9214 78.4603 16.0001 77.8153 16.0001ZM78.3581 9.62841C78.8615 9.62841 79.2705 9.48682 79.5852 9.20363C79.8998 8.90471 80.1358 8.5586 80.2932 8.16528C80.4505 7.77197 80.5291 7.42585 80.5291 7.12694C80.5291 6.76509 80.4269 6.46617 80.2224 6.23018C80.0178 5.97846 79.7347 5.8526 79.3728 5.8526C79.0896 5.8526 78.775 5.95486 78.4289 6.15938C78.0985 6.36391 77.7995 6.71789 77.5321 7.22133C77.2646 7.70904 77.0916 8.39341 77.0129 9.27443C77.5164 9.51042 77.9647 9.62841 78.3581 9.62841Z" fill="#FA1155"/>
<path d="M55.6323 15.9296C55.066 15.9296 54.5547 15.7015 54.0984 15.2452C53.6579 14.7733 53.4376 14.1282 53.4376 13.3101C53.4376 12.9011 53.4927 12.437 53.6028 11.9178C53.713 11.3829 53.831 10.8401 53.9568 10.2895C54.0984 9.73885 54.2243 9.21967 54.3344 8.73196C54.4445 8.24426 54.4996 7.83521 54.4996 7.50483C54.4996 7.23737 54.4367 7.02498 54.3108 6.86766C54.1849 6.6946 54.0197 6.60807 53.8152 6.60807C53.5478 6.60807 53.2567 6.7654 52.9421 7.08005L52.8005 6.98565C52.7847 6.73393 52.8398 6.43501 52.9657 6.0889C53.0915 5.74278 53.296 5.4124 53.5792 5.09775C53.8624 4.76736 54.2321 4.49205 54.6884 4.27179C55.1446 4.05153 55.6874 3.94141 56.3167 3.94141C57.0247 3.94141 57.5517 4.19313 57.8978 4.69657C58.2597 5.18428 58.4406 5.77425 58.4406 6.46648C58.4406 6.54514 58.4406 6.63167 58.4406 6.72607C58.4406 6.80473 58.4327 6.88339 58.417 6.96205C58.7159 6.47434 59.062 6.00237 59.4553 5.54613C59.8644 5.08988 60.3206 4.7123 60.8241 4.41338C61.3432 4.09873 61.9017 3.94141 62.4996 3.94141C63.2705 3.94141 63.8054 4.19313 64.1043 4.69657C64.4032 5.18428 64.5527 5.74278 64.5527 6.37208C64.5527 6.49794 64.5448 6.6238 64.5291 6.74966C64.5291 6.85979 64.5212 6.96992 64.5055 7.08005C64.8359 6.59234 65.1977 6.1125 65.591 5.64052C66.0001 5.15281 66.4642 4.75163 66.9834 4.43698C67.5025 4.1066 68.1004 3.94141 68.7769 3.94141C69.6107 3.94141 70.1771 4.18526 70.476 4.67297C70.7906 5.16068 70.948 5.73492 70.948 6.39568C70.948 6.97779 70.8772 7.64642 70.7356 8.40158C70.594 9.14101 70.4524 9.87257 70.3108 10.5963C70.1692 11.32 70.0984 11.9335 70.0984 12.437C70.0984 12.7359 70.1377 12.9798 70.2164 13.1685C70.3108 13.3573 70.4602 13.4517 70.6648 13.4517C70.8378 13.4517 70.9952 13.4045 71.1367 13.3101C71.2941 13.2 71.4042 13.0741 71.4671 12.9326L71.6559 13.0033C71.6559 13.5855 71.4907 14.0968 71.1603 14.5373C70.83 14.9778 70.413 15.3239 69.9096 15.5756C69.4062 15.8116 68.9027 15.9296 68.3993 15.9296C67.7857 15.9296 67.2429 15.7251 66.771 15.316C66.3147 14.907 66.0866 14.2305 66.0866 13.2865C66.0866 12.7044 66.1574 12.0751 66.299 11.3986C66.4563 10.7221 66.6058 10.0692 66.7474 9.43993C66.9047 8.79489 66.9834 8.26785 66.9834 7.85881C66.9834 7.2767 66.7788 6.98565 66.3698 6.98565C66.0709 6.98565 65.772 7.11151 65.473 7.36323C65.1898 7.59922 64.9303 7.92174 64.6943 8.33078C64.474 8.7241 64.2931 9.14101 64.1515 9.58152C64.0099 10.022 63.9391 10.4468 63.9391 10.8559C63.9391 11.2334 63.9784 11.6504 64.0571 12.1066C64.1515 12.5471 64.1987 12.9719 64.1987 13.3809C64.1987 14.199 63.9706 14.8283 63.5143 15.2688C63.0581 15.7093 62.5232 15.9296 61.9096 15.9296C61.3432 15.9296 60.8319 15.7408 60.3757 15.3632C59.9352 14.9856 59.7149 14.4193 59.7149 13.6641C59.7149 13.318 59.7621 12.9011 59.8565 12.4134C59.9509 11.9099 60.0532 11.3908 60.1633 10.8559C60.2892 10.3052 60.3993 9.77818 60.4937 9.27474C60.5881 8.7713 60.6353 8.33078 60.6353 7.9532C60.6353 7.65429 60.5881 7.4183 60.4937 7.24524C60.415 7.07218 60.2498 6.98565 59.9981 6.98565C59.6363 6.98565 59.2901 7.16658 58.9598 7.52842C58.6294 7.89027 58.3462 8.33078 58.1102 8.84996C57.8742 9.3534 57.7169 9.84111 57.6382 10.3131C57.6225 10.4232 57.6068 10.5097 57.591 10.5727C57.591 10.6356 57.591 10.6671 57.591 10.6671C57.591 11.1548 57.6461 11.6032 57.7562 12.0122C57.8663 12.4055 57.9214 12.8146 57.9214 13.2393C57.9214 14.0102 57.6854 14.6553 57.2134 15.1744C56.7572 15.6779 56.2302 15.9296 55.6323 15.9296Z" fill="#FA1155"/>
<path d="M48.0227 15.9292C47.5193 15.9292 47.0394 15.8191 46.5832 15.5988C46.1427 15.3628 45.7808 15.001 45.4976 14.5133C45.2302 14.0256 45.0965 13.4041 45.0965 12.649C45.0965 12.2399 45.1358 11.705 45.2145 11.0442C45.2931 10.3835 45.3954 9.65978 45.5212 8.87315C45.6628 8.08652 45.8044 7.2999 45.946 6.51327C45.6314 6.529 45.3246 6.56047 45.0257 6.60767C44.7425 6.65486 44.4593 6.70993 44.1761 6.77286L44.1289 6.60767C44.4436 6.23008 44.7739 5.90757 45.1201 5.64012C45.4662 5.37266 45.828 5.15241 46.2056 4.97935C46.4101 3.941 46.5832 3.04425 46.7248 2.28908C46.8664 1.51819 46.9372 1.06195 46.9372 0.920353C46.9372 0.6529 47.1417 0.432644 47.5507 0.259586C47.9755 0.0865287 48.4475 0 48.9667 0C49.4229 0 49.8477 0.0865287 50.241 0.259586C50.65 0.432644 50.9254 0.723696 51.067 1.13274C50.9726 1.22714 50.8388 1.58112 50.6658 2.19469C50.4927 2.79253 50.3118 3.52409 50.123 4.38938C50.4219 4.40511 50.7287 4.42084 51.0434 4.43658C51.358 4.45231 51.6805 4.47591 52.0109 4.50737C52.0424 4.60177 52.066 4.70403 52.0817 4.81416C52.0974 4.92428 52.1053 5.04228 52.1053 5.16814C52.1053 5.40413 52.066 5.66371 51.9873 5.9469C51.9244 6.21435 51.8457 6.45821 51.7513 6.67846C51.3737 6.647 51.0198 6.61553 50.6894 6.58407C50.359 6.53687 50.0365 6.5054 49.7218 6.48967C49.596 7.16617 49.478 7.84267 49.3678 8.51917C49.2734 9.19567 49.1948 9.80924 49.1319 10.3599C49.0847 10.9105 49.0611 11.3432 49.0611 11.6578C49.0611 12.3186 49.1791 12.7591 49.415 12.9793C49.6668 13.1996 49.9657 13.3097 50.3118 13.3097C50.6264 13.3097 50.9096 13.2468 51.1614 13.1209C51.4131 12.9951 51.594 12.8456 51.7041 12.6726L51.9401 12.7434C51.8457 13.3884 51.594 13.9548 51.185 14.4425C50.7759 14.9144 50.2882 15.2842 49.7218 15.5516C49.1555 15.8033 48.5891 15.9292 48.0227 15.9292Z" fill="#FA1155"/>
<path d="M37.3241 16.0001C36.1756 16.0001 35.2238 15.772 34.4686 15.3157C33.7134 14.8437 33.1471 14.2302 32.7695 13.475C32.3919 12.7041 32.2031 11.8782 32.2031 10.9971C32.2031 10.1633 32.3605 9.32949 32.6751 8.49567C33.0055 7.64611 33.4775 6.87522 34.091 6.18298C34.7203 5.49075 35.4755 4.93225 36.3565 4.50747C37.2533 4.08269 38.2602 3.8703 39.3772 3.8703C40.7616 3.8703 41.7685 4.18495 42.3978 4.81425C43.0428 5.42782 43.3654 6.17512 43.3654 7.05614C43.3654 7.8113 43.1608 8.5114 42.7518 9.15643C42.3585 9.78574 41.8314 10.297 41.1707 10.6904C40.5099 11.0679 39.7862 11.2567 38.9996 11.2567C38.5905 11.2567 38.1736 11.1938 37.7488 11.0679C37.3241 10.9421 36.9072 10.7454 36.4981 10.478C36.5768 11.4534 36.86 12.1613 37.3477 12.6019C37.8354 13.0424 38.4175 13.2626 39.094 13.2626C39.566 13.2626 40.0379 13.1761 40.5099 13.003C40.9819 12.8142 41.4145 12.5783 41.8078 12.2951C42.2169 11.9962 42.5315 11.6815 42.7518 11.3511L42.917 11.4691C42.917 12.2872 42.7439 12.9873 42.3978 13.5694C42.0674 14.1358 41.6269 14.5999 41.0763 14.9617C40.5256 15.3236 39.9199 15.591 39.2592 15.7641C38.6141 15.9214 37.9691 16.0001 37.3241 16.0001ZM37.8668 9.62841C38.3703 9.62841 38.7793 9.48682 39.094 9.20363C39.4086 8.90471 39.6446 8.5586 39.8019 8.16528C39.9593 7.77197 40.0379 7.42585 40.0379 7.12694C40.0379 6.76509 39.9357 6.46617 39.7311 6.23018C39.5266 5.97846 39.2434 5.8526 38.8816 5.8526C38.5984 5.8526 38.2838 5.95486 37.9376 6.15938C37.6073 6.36391 37.3083 6.71789 37.0409 7.22133C36.7734 7.70904 36.6004 8.39341 36.5217 9.27443C37.0251 9.51042 37.4735 9.62841 37.8668 9.62841Z" fill="#FA1155"/>
<path d="M25.0174 16.0001C23.8689 16.0001 22.9171 15.772 22.162 15.3157C21.4068 14.8437 20.8404 14.2302 20.4629 13.475C20.0853 12.7041 19.8965 11.8782 19.8965 10.9971C19.8965 10.1633 20.0538 9.32949 20.3685 8.49567C20.6988 7.64611 21.1708 6.87522 21.7844 6.18298C22.4137 5.49075 23.1689 4.93225 24.0499 4.50747C24.9466 4.08269 25.9535 3.8703 27.0705 3.8703C28.455 3.8703 29.4619 4.18495 30.0912 4.81425C30.7362 5.42782 31.0587 6.17512 31.0587 7.05614C31.0587 7.8113 30.8542 8.5114 30.4452 9.15643C30.0518 9.78574 29.5248 10.297 28.864 10.6904C28.2033 11.0679 27.4796 11.2567 26.6929 11.2567C26.2839 11.2567 25.867 11.1938 25.4422 11.0679C25.0174 10.9421 24.6005 10.7454 24.1915 10.478C24.2701 11.4534 24.5533 12.1613 25.041 12.6019C25.5287 13.0424 26.1108 13.2626 26.7873 13.2626C27.2593 13.2626 27.7313 13.1761 28.2033 13.003C28.6752 12.8142 29.1079 12.5783 29.5012 12.2951C29.9102 11.9962 30.2249 11.6815 30.4452 11.3511L30.6103 11.4691C30.6103 12.2872 30.4373 12.9873 30.0912 13.5694C29.7608 14.1358 29.3203 14.5999 28.7696 14.9617C28.219 15.3236 27.6133 15.591 26.9525 15.7641C26.3075 15.9214 25.6625 16.0001 25.0174 16.0001ZM25.5602 9.62841C26.0636 9.62841 26.4727 9.48682 26.7873 9.20363C27.102 8.90471 27.338 8.5586 27.4953 8.16528C27.6526 7.77197 27.7313 7.42585 27.7313 7.12694C27.7313 6.76509 27.629 6.46617 27.4245 6.23018C27.22 5.97846 26.9368 5.8526 26.5749 5.8526C26.2918 5.8526 25.9771 5.95486 25.631 6.15938C25.3006 6.36391 25.0017 6.71789 24.7342 7.22133C24.4668 7.70904 24.2937 8.39341 24.2151 9.27443C24.7185 9.51042 25.1669 9.62841 25.5602 9.62841Z" fill="#FA1155"/>
<path d="M2.83448 15.9296C2.26811 15.9296 1.7568 15.7015 1.30056 15.2452C0.860046 14.7733 0.63979 14.1282 0.63979 13.3101C0.63979 12.9011 0.694854 12.437 0.804982 11.9178C0.91511 11.3829 1.0331 10.8401 1.15896 10.2895C1.30056 9.73885 1.42642 9.21967 1.53655 8.73196C1.64667 8.24426 1.70174 7.83521 1.70174 7.50483C1.70174 7.23737 1.63881 7.02498 1.51295 6.86766C1.38709 6.6946 1.22189 6.60807 1.01737 6.60807C0.749918 6.60807 0.458866 6.7654 0.144215 7.08005L0.00262208 6.98565C-0.0131105 6.73393 0.0419536 6.43501 0.167814 6.0889C0.293674 5.74278 0.498197 5.4124 0.781383 5.09775C1.06457 4.76736 1.43428 4.49205 1.89053 4.27179C2.34677 4.05153 2.88954 3.94141 3.51885 3.94141C4.22681 3.94141 4.75385 4.19313 5.09997 4.69657C5.46181 5.18428 5.64274 5.77425 5.64274 6.46648C5.64274 6.54514 5.64274 6.63167 5.64274 6.72607C5.64274 6.80473 5.63487 6.88339 5.61914 6.96205C5.91806 6.47434 6.26417 6.00237 6.65749 5.54613C7.06653 5.08988 7.52278 4.7123 8.02622 4.41338C8.54539 4.09873 9.1039 3.94141 9.70173 3.94141C10.4726 3.94141 11.0075 4.19313 11.3065 4.69657C11.6054 5.18428 11.7548 5.74278 11.7548 6.37208C11.7548 6.49794 11.747 6.6238 11.7312 6.74966C11.7312 6.85979 11.7234 6.96992 11.7076 7.08005C12.038 6.59234 12.3999 6.1125 12.7932 5.64052C13.2022 5.15281 13.6663 4.75163 14.1855 4.43698C14.7047 4.1066 15.3025 3.94141 15.979 3.94141C16.8128 3.94141 17.3792 4.18526 17.6781 4.67297C17.9928 5.16068 18.1501 5.73492 18.1501 6.39568C18.1501 6.97779 18.0793 7.64642 17.9377 8.40158C17.7961 9.14101 17.6545 9.87257 17.5129 10.5963C17.3713 11.32 17.3006 11.9335 17.3006 12.437C17.3006 12.7359 17.3399 12.9798 17.4185 13.1685C17.5129 13.3573 17.6624 13.4517 17.8669 13.4517C18.04 13.4517 18.1973 13.4045 18.3389 13.3101C18.4962 13.2 18.6064 13.0741 18.6693 12.9326L18.8581 13.0033C18.8581 13.5855 18.6929 14.0968 18.3625 14.5373C18.0321 14.9778 17.6152 15.3239 17.1118 15.5756C16.6083 15.8116 16.1049 15.9296 15.6014 15.9296C14.9879 15.9296 14.4451 15.7251 13.9731 15.316C13.5169 14.907 13.2888 14.2305 13.2888 13.2865C13.2888 12.7044 13.3595 12.0751 13.5011 11.3986C13.6585 10.7221 13.8079 10.0692 13.9495 9.43993C14.1068 8.79489 14.1855 8.26785 14.1855 7.85881C14.1855 7.2767 13.981 6.98565 13.5719 6.98565C13.273 6.98565 12.9741 7.11151 12.6752 7.36323C12.392 7.59922 12.1324 7.92174 11.8964 8.33078C11.6762 8.7241 11.4952 9.14101 11.3537 9.58152C11.2121 10.022 11.1413 10.4468 11.1413 10.8559C11.1413 11.2334 11.1806 11.6504 11.2593 12.1066C11.3537 12.5471 11.4008 12.9719 11.4008 13.3809C11.4008 14.199 11.1727 14.8283 10.7165 15.2688C10.2602 15.7093 9.72533 15.9296 9.11176 15.9296C8.54539 15.9296 8.03408 15.7408 7.57784 15.3632C7.13733 14.9856 6.91707 14.4193 6.91707 13.6641C6.91707 13.318 6.96427 12.9011 7.05867 12.4134C7.15306 11.9099 7.25532 11.3908 7.36545 10.8559C7.49131 10.3052 7.60144 9.77818 7.69583 9.27474C7.79023 8.7713 7.83743 8.33078 7.83743 7.9532C7.83743 7.65429 7.79023 7.4183 7.69583 7.24524C7.61717 7.07218 7.45198 6.98565 7.20026 6.98565C6.83841 6.98565 6.4923 7.16658 6.16191 7.52842C5.83153 7.89027 5.54834 8.33078 5.31236 8.84996C5.07637 9.3534 4.91904 9.84111 4.84038 10.3131C4.82465 10.4232 4.80891 10.5097 4.79318 10.5727C4.79318 10.6356 4.79318 10.6671 4.79318 10.6671C4.79318 11.1548 4.84825 11.6032 4.95837 12.0122C5.0685 12.4055 5.12356 12.8146 5.12356 13.2393C5.12356 14.0102 4.88758 14.6553 4.4156 15.1744C3.95936 15.6779 3.43232 15.9296 2.83448 15.9296Z" fill="#FA1155"/>
</svg>
